<svg width="800" height="800" viewBox="0 0 800 800" fill="none" xmlns="http://www.w3.org/2000/svg">
<g clip-path="url(#clip0_1_4)">
<path d="M534.706 781.875C499.832 795.978 462.19 801.906 424.669 799.204C387.239 802.296 349.613 796.353 314.959 781.875C310.181 778.013 306.337 773.121 303.715 767.564C301.093 762.008 299.76 755.931 299.817 749.788C299.817 737.762 299.379 706.166 299.161 664.13C159.003 694.577 129.43 596.565 129.43 596.565C120.163 566.11 100.309 539.974 73.4546 522.879C27.7558 491.611 76.8984 492.267 76.8984 492.267C92.8685 494.476 108.123 500.302 121.5 509.302C134.876 518.301 146.021 530.237 154.084 544.198C160.91 556.623 170.133 567.572 181.218 576.411C192.302 585.25 205.03 591.803 218.663 595.692C232.297 599.581 246.566 600.728 260.646 599.067C274.726 597.406 288.337 592.97 300.691 586.015C302.999 560.45 314.359 536.549 332.724 518.615C220.882 505.933 103.246 462.694 103.246 269.677C102.511 219.615 121.067 171.191 155.067 134.439C139.713 91.0003 141.492 43.3424 160.042 1.1691C160.042 1.1691 202.297 -12.3875 298.56 52.8263C381.127 30.189 468.265 30.189 550.832 52.8263C647.04 -12.3875 689.241 1.1691 689.241 1.1691C707.825 43.3316 709.623 90.9959 694.27 134.439C728.269 171.187 746.808 219.619 746.036 269.677C746.036 463.186 628.236 505.824 516.011 518.287C528.033 530.492 537.303 545.129 543.196 561.214C549.089 577.3 551.469 594.461 550.176 611.543C550.176 678.889 549.575 733.279 549.575 749.788C549.889 755.941 548.699 762.079 546.108 767.67C543.518 773.261 539.604 778.136 534.706 781.875Z" fill="black"/>
</g>
<defs>
<clipPath id="clip0_1_4">
<rect width="800" height="800" fill="white"/>
</clipPath>
</defs>
</svg>
